<?xml version="1.0" encoding="UTF-8"?>
<!DOCTYPE svg PUBLIC "-//W3C//DTD SVG 1.1//EN" "http://www.w3.org/Graphics/SVG/1.1/DTD/svg11.dtd">
<!-- Creator: CorelDRAW X7 -->
<svg xmlns="http://www.w3.org/2000/svg" xml:space="preserve" width="1000px" height="1154px" version="1.1" style="shape-rendering:geometricPrecision; text-rendering:geometricPrecision; image-rendering:optimizeQuality; fill-rule:evenodd; clip-rule:evenodd"
viewBox="0 0 113716 131276"
 xmlns:xlink="http://www.w3.org/1999/xlink">
 <defs>
  <style type="text/css">
   <![CDATA[
    .str0 {stroke:white;stroke-width:1138.98}
    .str2 {stroke:white;stroke-width:645.399}
    .str1 {stroke:white;stroke-width:492.286}
    .fil1 {fill:#00AFEF}
    .fil0 {fill:#E6E7E8}
    .fil2 {fill:white}
   ]]>
  </style>
 </defs>
 <g id="Layer_x0020_1">
  <metadata id="CorelCorpID_0Corel-Layer"/>
  <path class="fil0" d="M53970 129609l-25541 -14747 5 -9 -25524 -14737 -2910 -1680 0 -3306 0 -29492 0 -29492 0 -3306 2910 -1681 25524 -14736 -5 -10 25541 -14746 2888 -1667 2888 1667 25541 14746 -6 10 25525 14736 2910 1681 0 3306 0 29492 0 29492 0 3306 -2910 1680 -25525 14737 6 9 -25541 14747 -2888 1667 -2888 -1667zm-19766 -24718l22654 13079 22653 -13079 23 0 22631 -13067 0 -26186 0 -26187 -22631 -13066 -23 0 -22653 -13079 -22654 13079 -22 0 -22631 13066 0 26187 0 26186 22631 13067 22 0z"/>
  <polygon class="fil1" points="56858,117970 79512,104891 79535,104891 102164,91825 102164,65638 102164,39451 79535,26384 79512,26384 56858,13306 34204,26384 34181,26384 11551,39451 11551,65638 11551,91825 34181,104891 34204,104891 "/>
  <path class="fil2 str0" d="M76531 101313l-17441 0c-968,0 -1759,-791 -1759,-1759l0 -8794c0,-968 791,-1759 1759,-1759l17441 0c968,0 1759,791 1759,1759l0 8794c0,968 -791,1759 -1759,1759z"/>
  <path class="fil2 str0" d="M67810 75771c-3988,0 -7221,-3232 -7221,-7220 0,-3989 3233,-7222 7221,-7222 3989,0 7222,3233 7222,7222 0,3988 -3233,7220 -7222,7220z"/>
  <path class="fil2 str0" d="M67512 44461l-7747 -7747c-165,-164 -165,-433 0,-598l7747 -7746c164,-165 433,-165 597,0l7747 7746c165,164 165,434 0,598l-7747 7747c-164,165 -433,165 -597,0z"/>
  <path class="fil2 str0" d="M31879 76596l-7747 -7747c-164,-164 -164,-433 0,-598l7747 -7746c165,-165 434,-165 598,0l7747 7746c164,165 164,434 0,598l-7747 7747c-164,164 -433,164 -598,0z"/>
  <path class="fil2 str0" d="M39048 48040l-13739 0c-1162,0 -2113,-951 -2113,-2114l0 -5636c0,-1162 951,-2114 2113,-2114l13739 0c1162,0 2113,952 2113,2114l0 5636c0,1163 -951,2114 -2113,2114z"/>
  <polygon class="fil2 str1" points="66506,84357 67561,84357 67561,79920 66506,79920 67810,77547 69116,79920 68061,79920 68061,84357 69116,84357 67810,86730 "/>
  <polygon class="fil2 str1" points="46666,67245 46666,68301 55033,68301 55033,67245 57405,68551 55033,69856 55033,68800 46666,68800 46666,69856 44293,68551 "/>
  <polygon class="fil2 str1" points="33483,52361 32428,52361 32428,55807 33483,55807 32178,58180 30873,55807 31928,55807 31928,52361 30873,52361 32178,49989 "/>
  <polygon class="fil2 str2" points="69116,50205 68061,50205 68061,56208 69116,56208 67810,58580 66506,56208 67561,56208 67561,50205 66506,50205 67810,47833 "/>
 </g>
</svg>
